<svg xmlns="http://www.w3.org/2000/svg" viewBox="0 0 72 72" fill="currentColor">
  <!-- Breccia variant 1: clustered angular fragments in circular matrix -->
  <circle cx="36" cy="36" r="34" fill="currentColor" opacity="0.12"/>
  <polygon points="20,8 34,6 38,18 28,22 16,16" fill="currentColor" opacity="0.9"/>
  <polygon points="42,10 56,8 60,20 52,26 40,22" fill="currentColor" opacity="0.6"/>
  <polygon points="10,24 22,26 26,38 18,44 6,36" fill="currentColor" opacity="0.75"/>
  <polygon points="30,28 44,30 48,42 38,48 26,40" fill="currentColor" opacity="0.5"/>
  <polygon points="50,28 64,24 68,36 60,44 48,38" fill="currentColor" opacity="0.85"/>
  <polygon points="14,48 28,44 34,56 24,62 10,58" fill="currentColor" opacity="0.65"/>
  <polygon points="38,52 52,48 58,58 48,66 36,60" fill="currentColor" opacity="0.45"/>
  <line x1="28" y1="22" x2="30" y2="28" stroke="currentColor" stroke-width="1" opacity="0.25"/>
  <line x1="38" y1="18" x2="42" y2="22" stroke="currentColor" stroke-width="1" opacity="0.25"/>
  <line x1="26" y1="38" x2="30" y2="28" stroke="currentColor" stroke-width="1" opacity="0.25"/>
  <line x1="44" y1="30" x2="50" y2="28" stroke="currentColor" stroke-width="1" opacity="0.25"/>
  <line x1="34" y1="56" x2="38" y2="52" stroke="currentColor" stroke-width="1" opacity="0.25"/>
</svg>
